# Blender 5.2.1 LTS
# www.blender.org
mtllib cue.mtl
o CueFerrule
v -0.012000 0.000000 -0.005800
v -0.012000 0.001501 -0.005602
v -0.012000 0.002900 -0.005023
v -0.012000 0.004101 -0.004101
v -0.012000 0.005023 -0.002900
v -0.012000 0.005602 -0.001501
v -0.012000 0.005800 -0.000000
v -0.012000 0.005602 0.001501
v -0.012000 0.005023 0.002900
v -0.012000 0.004101 0.004101
v -0.012000 0.002900 0.005023
v -0.012000 0.001501 0.005602
v -0.012000 0.000000 0.005800
v -0.012000 -0.001501 0.005602
v -0.012000 -0.002900 0.005023
v -0.012000 -0.004101 0.004101
v -0.012000 -0.005023 0.002900
v -0.012000 -0.005602 0.001501
v -0.012000 -0.005800 0.000000
v -0.012000 -0.005602 -0.001501
v -0.012000 -0.005023 -0.002900
v -0.012000 -0.004101 -0.004101
v -0.012000 -0.002900 -0.005023
v -0.012000 -0.001501 -0.005602
v 0.000500 0.000000 -0.005800
v 0.000500 0.001501 -0.005602
v 0.000500 0.002900 -0.005023
v 0.000500 0.004101 -0.004101
v 0.000500 0.005023 -0.002900
v 0.000500 0.005602 -0.001501
v 0.000500 0.005800 -0.000000
v 0.000500 0.005602 0.001501
v 0.000500 0.005023 0.002900
v 0.000500 0.004101 0.004101
v 0.000500 0.002900 0.005023
v 0.000500 0.001501 0.005602
v 0.000500 0.000000 0.005800
v 0.000500 -0.001501 0.005602
v 0.000500 -0.002900 0.005023
v 0.000500 -0.004101 0.004101
v 0.000500 -0.005023 0.002900
v 0.000500 -0.005602 0.001501
v 0.000500 -0.005800 0.000000
v 0.000500 -0.005602 -0.001501
v 0.000500 -0.005023 -0.002900
v 0.000500 -0.004101 -0.004101
v 0.000500 -0.002900 -0.005023
v 0.000500 -0.001501 -0.005602
vn -0.0000 0.1305 -0.9914
vn -0.0000 0.3827 -0.9239
vn -0.0000 0.6088 -0.7934
vn -0.0000 0.7934 -0.6088
vn -0.0000 0.9239 -0.3827
vn -0.0000 0.9914 -0.1305
vn -0.0000 0.9914 0.1305
vn -0.0000 0.9239 0.3827
vn -0.0000 0.7934 0.6088
vn -0.0000 0.6088 0.7934
vn -0.0000 0.3827 0.9239
vn -0.0000 0.1305 0.9914
vn -0.0000 -0.1305 0.9914
vn -0.0000 -0.3827 0.9239
vn -0.0000 -0.6088 0.7934
vn -0.0000 -0.7934 0.6088
vn -0.0000 -0.9239 0.3827
vn -0.0000 -0.9914 0.1305
vn -0.0000 -0.9914 -0.1305
vn -0.0000 -0.9239 -0.3827
vn -0.0000 -0.7934 -0.6088
vn -0.0000 -0.6088 -0.7934
vn -0.0000 -0.3827 -0.9239
vn -0.0000 -0.1305 -0.9914
vn -1.0000 -0.0000 -0.0000
vn 1.0000 -0.0000 -0.0000
s 0
usemtl Ferrule
f 1//1 2//1 26//1 25//1
f 2//2 3//2 27//2 26//2
f 3//3 4//3 28//3 27//3
f 4//4 5//4 29//4 28//4
f 5//5 6//5 30//5 29//5
f 6//6 7//6 31//6 30//6
f 7//7 8//7 32//7 31//7
f 8//8 9//8 33//8 32//8
f 9//9 10//9 34//9 33//9
f 10//10 11//10 35//10 34//10
f 11//11 12//11 36//11 35//11
f 12//12 13//12 37//12 36//12
f 13//13 14//13 38//13 37//13
f 14//14 15//14 39//14 38//14
f 15//15 16//15 40//15 39//15
f 16//16 17//16 41//16 40//16
f 17//17 18//17 42//17 41//17
f 18//18 19//18 43//18 42//18
f 19//19 20//19 44//19 43//19
f 20//20 21//20 45//20 44//20
f 21//21 22//21 46//21 45//21
f 22//22 23//22 47//22 46//22
f 23//23 24//23 48//23 47//23
f 24//24 1//24 25//24 48//24
f 24//25 23//25 22//25 21//25 20//25 19//25 18//25 17//25 16//25 15//25 14//25 13//25 12//25 11//25 10//25 9//25 8//25 7//25 6//25 5//25 4//25 3//25 2//25 1//25
f 25//26 26//26 27//26 28//26 29//26 30//26 31//26 32//26 33//26 34//26 35//26 36//26 37//26 38//26 39//26 40//26 41//26 42//26 43//26 44//26 45//26 46//26 47//26 48//26
o CueTip
v 0.000500 0.000000 -0.005600
v 0.000500 0.001449 -0.005409
v 0.000500 0.002800 -0.004850
v 0.000500 0.003960 -0.003960
v 0.000500 0.004850 -0.002800
v 0.000500 0.005409 -0.001449
v 0.000500 0.005600 -0.000000
v 0.000500 0.005409 0.001449
v 0.000500 0.004850 0.002800
v 0.000500 0.003960 0.003960
v 0.000500 0.002800 0.004850
v 0.000500 0.001449 0.005409
v 0.000500 0.000000 0.005600
v 0.000500 -0.001449 0.005409
v 0.000500 -0.002800 0.004850
v 0.000500 -0.003960 0.003960
v 0.000500 -0.004850 0.002800
v 0.000500 -0.005409 0.001449
v 0.000500 -0.005600 0.000000
v 0.000500 -0.005409 -0.001449
v 0.000500 -0.004850 -0.002800
v 0.000500 -0.003960 -0.003960
v 0.000500 -0.002800 -0.004850
v 0.000500 -0.001449 -0.005409
v 0.006000 0.000000 -0.005000
v 0.006000 0.001294 -0.004830
v 0.006000 0.002500 -0.004330
v 0.006000 0.003536 -0.003536
v 0.006000 0.004330 -0.002500
v 0.006000 0.004830 -0.001294
v 0.006000 0.005000 -0.000000
v 0.006000 0.004830 0.001294
v 0.006000 0.004330 0.002500
v 0.006000 0.003536 0.003536
v 0.006000 0.002500 0.004330
v 0.006000 0.001294 0.004830
v 0.006000 0.000000 0.005000
v 0.006000 -0.001294 0.004830
v 0.006000 -0.002500 0.004330
v 0.006000 -0.003536 0.003536
v 0.006000 -0.004330 0.002500
v 0.006000 -0.004830 0.001294
v 0.006000 -0.005000 0.000000
v 0.006000 -0.004830 -0.001294
v 0.006000 -0.004330 -0.002500
v 0.006000 -0.003536 -0.003536
v 0.006000 -0.002500 -0.004330
v 0.006000 -0.001294 -0.004830
vn 0.1075 0.1298 -0.9857
vn 0.1075 0.3805 -0.9185
vn 0.1075 0.6052 -0.7888
vn 0.1075 0.7888 -0.6052
vn 0.1075 0.9185 -0.3805
vn 0.1075 0.9857 -0.1298
vn 0.1075 0.9857 0.1298
vn 0.1075 0.9185 0.3805
vn 0.1075 0.7888 0.6052
vn 0.1075 0.6052 0.7888
vn 0.1075 0.3805 0.9185
vn 0.1075 0.1298 0.9857
vn 0.1075 -0.1298 0.9857
vn 0.1075 -0.3805 0.9185
vn 0.1075 -0.6052 0.7888
vn 0.1075 -0.7888 0.6052
vn 0.1075 -0.9185 0.3805
vn 0.1075 -0.9857 0.1298
vn 0.1075 -0.9857 -0.1298
vn 0.1075 -0.9185 -0.3805
vn 0.1075 -0.7888 -0.6052
vn 0.1075 -0.6052 -0.7888
vn 0.1075 -0.3805 -0.9185
vn 0.1075 -0.1298 -0.9857
vn -1.0000 -0.0000 -0.0000
vn 1.0000 -0.0000 -0.0000
s 0
usemtl Pocket
f 49//27 50//27 74//27 73//27
f 50//28 51//28 75//28 74//28
f 51//29 52//29 76//29 75//29
f 52//30 53//30 77//30 76//30
f 53//31 54//31 78//31 77//31
f 54//32 55//32 79//32 78//32
f 55//33 56//33 80//33 79//33
f 56//34 57//34 81//34 80//34
f 57//35 58//35 82//35 81//35
f 58//36 59//36 83//36 82//36
f 59//37 60//37 84//37 83//37
f 60//38 61//38 85//38 84//38
f 61//39 62//39 86//39 85//39
f 62//40 63//40 87//40 86//40
f 63//41 64//41 88//41 87//41
f 64//42 65//42 89//42 88//42
f 65//43 66//43 90//43 89//43
f 66//44 67//44 91//44 90//44
f 67//45 68//45 92//45 91//45
f 68//46 69//46 93//46 92//46
f 69//47 70//47 94//47 93//47
f 70//48 71//48 95//48 94//48
f 71//49 72//49 96//49 95//49
f 72//50 49//50 73//50 96//50
f 72//51 71//51 70//51 69//51 68//51 67//51 66//51 65//51 64//51 63//51 62//51 61//51 60//51 59//51 58//51 57//51 56//51 55//51 54//51 53//51 52//51 51//51 50//51 49//51
f 73//52 74//52 75//52 76//52 77//52 78//52 79//52 80//52 81//52 82//52 83//52 84//52 85//52 86//52 87//52 88//52 89//52 90//52 91//52 92//52 93//52 94//52 95//52 96//52
o CueShaft
v -0.012000 0.000000 -0.005800
v -0.012000 0.001501 -0.005602
v -0.012000 0.002900 -0.005023
v -0.012000 0.004101 -0.004101
v -0.012000 0.005023 -0.002900
v -0.012000 0.005602 -0.001501
v -0.012000 0.005800 -0.000000
v -0.012000 0.005602 0.001501
v -0.012000 0.005023 0.002900
v -0.012000 0.004101 0.004101
v -0.012000 0.002900 0.005023
v -0.012000 0.001501 0.005602
v -0.012000 0.000000 0.005800
v -0.012000 -0.001501 0.005602
v -0.012000 -0.002900 0.005023
v -0.012000 -0.004101 0.004101
v -0.012000 -0.005023 0.002900
v -0.012000 -0.005602 0.001501
v -0.012000 -0.005800 0.000000
v -0.012000 -0.005602 -0.001501
v -0.012000 -0.005023 -0.002900
v -0.012000 -0.004101 -0.004101
v -0.012000 -0.002900 -0.005023
v -0.012000 -0.001501 -0.005602
v -0.156750 0.000000 -0.006175
v -0.156750 0.001598 -0.005965
v -0.156750 0.003088 -0.005348
v -0.156750 0.004366 -0.004366
v -0.156750 0.005348 -0.003088
v -0.156750 0.005965 -0.001598
v -0.156750 0.006175 -0.000000
v -0.156750 0.005965 0.001598
v -0.156750 0.005348 0.003088
v -0.156750 0.004366 0.004366
v -0.156750 0.003088 0.005348
v -0.156750 0.001598 0.005965
v -0.156750 0.000000 0.006175
v -0.156750 -0.001598 0.005965
v -0.156750 -0.003088 0.005348
v -0.156750 -0.004366 0.004366
v -0.156750 -0.005348 0.003088
v -0.156750 -0.005965 0.001598
v -0.156750 -0.006175 0.000000
v -0.156750 -0.005965 -0.001598
v -0.156750 -0.005348 -0.003088
v -0.156750 -0.004366 -0.004366
v -0.156750 -0.003088 -0.005348
v -0.156750 -0.001598 -0.005965
v -0.301500 0.000000 -0.006550
v -0.301500 0.001695 -0.006327
v -0.301500 0.003275 -0.005672
v -0.301500 0.004632 -0.004632
v -0.301500 0.005672 -0.003275
v -0.301500 0.006327 -0.001695
v -0.301500 0.006550 -0.000000
v -0.301500 0.006327 0.001695
v -0.301500 0.005672 0.003275
v -0.301500 0.004632 0.004632
v -0.301500 0.003275 0.005672
v -0.301500 0.001695 0.006327
v -0.301500 0.000000 0.006550
v -0.301500 -0.001695 0.006327
v -0.301500 -0.003275 0.005672
v -0.301500 -0.004632 0.004632
v -0.301500 -0.005672 0.003275
v -0.301500 -0.006327 0.001695
v -0.301500 -0.006550 0.000000
v -0.301500 -0.006327 -0.001695
v -0.301500 -0.005672 -0.003275
v -0.301500 -0.004632 -0.004632
v -0.301500 -0.003275 -0.005672
v -0.301500 -0.001695 -0.006327
v -0.446250 0.000000 -0.006925
v -0.446250 0.001792 -0.006689
v -0.446250 0.003462 -0.005997
v -0.446250 0.004897 -0.004897
v -0.446250 0.005997 -0.003462
v -0.446250 0.006689 -0.001792
v -0.446250 0.006925 -0.000000
v -0.446250 0.006689 0.001792
v -0.446250 0.005997 0.003462
v -0.446250 0.004897 0.004897
v -0.446250 0.003462 0.005997
v -0.446250 0.001792 0.006689
v -0.446250 0.000000 0.006925
v -0.446250 -0.001792 0.006689
v -0.446250 -0.003462 0.005997
v -0.446250 -0.004897 0.004897
v -0.446250 -0.005997 0.003462
v -0.446250 -0.006689 0.001792
v -0.446250 -0.006925 0.000000
v -0.446250 -0.006689 -0.001792
v -0.446250 -0.005997 -0.003462
v -0.446250 -0.004897 -0.004897
v -0.446250 -0.003462 -0.005997
v -0.446250 -0.001792 -0.006689
v -0.591000 0.000000 -0.007300
v -0.591000 0.001889 -0.007051
v -0.591000 0.003650 -0.006322
v -0.591000 0.005162 -0.005162
v -0.591000 0.006322 -0.003650
v -0.591000 0.007051 -0.001889
v -0.591000 0.007300 -0.000000
v -0.591000 0.007051 0.001889
v -0.591000 0.006322 0.003650
v -0.591000 0.005162 0.005162
v -0.591000 0.003650 0.006322
v -0.591000 0.001889 0.007051
v -0.591000 0.000000 0.007300
v -0.591000 -0.001889 0.007051
v -0.591000 -0.003650 0.006322
v -0.591000 -0.005162 0.005162
v -0.591000 -0.006322 0.003650
v -0.591000 -0.007051 0.001889
v -0.591000 -0.007300 0.000000
v -0.591000 -0.007051 -0.001889
v -0.591000 -0.006322 -0.003650
v -0.591000 -0.005162 -0.005162
v -0.591000 -0.003650 -0.006322
v -0.591000 -0.001889 -0.007051
v -0.735750 0.000000 -0.007675
v -0.735750 0.001986 -0.007413
v -0.735750 0.003838 -0.006647
v -0.735750 0.005427 -0.005427
v -0.735750 0.006647 -0.003838
v -0.735750 0.007413 -0.001986
v -0.735750 0.007675 -0.000000
v -0.735750 0.007413 0.001986
v -0.735750 0.006647 0.003838
v -0.735750 0.005427 0.005427
v -0.735750 0.003838 0.006647
v -0.735750 0.001986 0.007413
v -0.735750 0.000000 0.007675
v -0.735750 -0.001986 0.007413
v -0.735750 -0.003838 0.006647
v -0.735750 -0.005427 0.005427
v -0.735750 -0.006647 0.003838
v -0.735750 -0.007413 0.001986
v -0.735750 -0.007675 0.000000
v -0.735750 -0.007413 -0.001986
v -0.735750 -0.006647 -0.003838
v -0.735750 -0.005427 -0.005427
v -0.735750 -0.003838 -0.006647
v -0.735750 -0.001986 -0.007413
v -0.880500 0.000000 -0.008050
v -0.880500 0.002083 -0.007776
v -0.880500 0.004025 -0.006972
v -0.880500 0.005692 -0.005692
v -0.880500 0.006972 -0.004025
v -0.880500 0.007776 -0.002083
v -0.880500 0.008050 -0.000000
v -0.880500 0.007776 0.002083
v -0.880500 0.006972 0.004025
v -0.880500 0.005692 0.005692
v -0.880500 0.004025 0.006972
v -0.880500 0.002083 0.007776
v -0.880500 0.000000 0.008050
v -0.880500 -0.002083 0.007776
v -0.880500 -0.004025 0.006972
v -0.880500 -0.005692 0.005692
v -0.880500 -0.006972 0.004025
v -0.880500 -0.007776 0.002083
v -0.880500 -0.008050 0.000000
v -0.880500 -0.007776 -0.002083
v -0.880500 -0.006972 -0.004025
v -0.880500 -0.005692 -0.005692
v -0.880500 -0.004025 -0.006972
v -0.880500 -0.002083 -0.007776
v -1.025250 0.000000 -0.008425
v -1.025250 0.002181 -0.008138
v -1.025250 0.004213 -0.007296
v -1.025250 0.005957 -0.005957
v -1.025250 0.007296 -0.004213
v -1.025250 0.008138 -0.002181
v -1.025250 0.008425 -0.000000
v -1.025250 0.008138 0.002181
v -1.025250 0.007296 0.004213
v -1.025250 0.005957 0.005957
v -1.025250 0.004213 0.007296
v -1.025250 0.002181 0.008138
v -1.025250 0.000000 0.008425
v -1.025250 -0.002181 0.008138
v -1.025250 -0.004213 0.007296
v -1.025250 -0.005957 0.005957
v -1.025250 -0.007296 0.004213
v -1.025250 -0.008138 0.002181
v -1.025250 -0.008425 0.000000
v -1.025250 -0.008138 -0.002181
v -1.025250 -0.007296 -0.004213
v -1.025250 -0.005957 -0.005957
v -1.025250 -0.004213 -0.007296
v -1.025250 -0.002181 -0.008138
v -1.170000 0.000000 -0.008800
v -1.170000 0.002278 -0.008500
v -1.170000 0.004400 -0.007621
v -1.170000 0.006223 -0.006223
v -1.170000 0.007621 -0.004400
v -1.170000 0.008500 -0.002278
v -1.170000 0.008800 -0.000000
v -1.170000 0.008500 0.002278
v -1.170000 0.007621 0.004400
v -1.170000 0.006223 0.006223
v -1.170000 0.004400 0.007621
v -1.170000 0.002278 0.008500
v -1.170000 0.000000 0.008800
v -1.170000 -0.002278 0.008500
v -1.170000 -0.004400 0.007621
v -1.170000 -0.006223 0.006223
v -1.170000 -0.007621 0.004400
v -1.170000 -0.008500 0.002278
v -1.170000 -0.008800 0.000000
v -1.170000 -0.008500 -0.002278
v -1.170000 -0.007621 -0.004400
v -1.170000 -0.006223 -0.006223
v -1.170000 -0.004400 -0.007621
v -1.170000 -0.002278 -0.008500
vn 0.0026 0.1305 -0.9914
vn 0.0026 0.3827 -0.9239
vn 0.0026 0.6088 -0.7934
vn 0.0026 0.7934 -0.6088
vn 0.0026 0.9239 -0.3827
vn 0.0026 0.9914 -0.1305
vn 0.0026 0.9914 0.1305
vn 0.0026 0.9239 0.3827
vn 0.0026 0.7934 0.6088
vn 0.0026 0.6088 0.7934
vn 0.0026 0.3827 0.9239
vn 0.0026 0.1305 0.9914
vn 0.0026 -0.1305 0.9914
vn 0.0026 -0.3827 0.9239
vn 0.0026 -0.6088 0.7934
vn 0.0026 -0.7934 0.6088
vn 0.0026 -0.9239 0.3827
vn 0.0026 -0.9914 0.1305
vn 0.0026 -0.9914 -0.1305
vn 0.0026 -0.9239 -0.3827
vn 0.0026 -0.7934 -0.6088
vn 0.0026 -0.6088 -0.7934
vn 0.0026 -0.3827 -0.9239
vn 0.0026 -0.1305 -0.9914
vn 1.0000 -0.0000 -0.0000
vn -1.0000 -0.0000 -0.0000
s 0
usemtl CueShaft
f 97//53 121//53 122//53 98//53
f 98//54 122//54 123//54 99//54
f 99//55 123//55 124//55 100//55
f 100//56 124//56 125//56 101//56
f 101//57 125//57 126//57 102//57
f 102//58 126//58 127//58 103//58
f 103//59 127//59 128//59 104//59
f 104//60 128//60 129//60 105//60
f 105//61 129//61 130//61 106//61
f 106//62 130//62 131//62 107//62
f 107//63 131//63 132//63 108//63
f 108//64 132//64 133//64 109//64
f 109//65 133//65 134//65 110//65
f 110//66 134//66 135//66 111//66
f 111//67 135//67 136//67 112//67
f 112//68 136//68 137//68 113//68
f 113//69 137//69 138//69 114//69
f 114//70 138//70 139//70 115//70
f 115//71 139//71 140//71 116//71
f 116//72 140//72 141//72 117//72
f 117//73 141//73 142//73 118//73
f 118//74 142//74 143//74 119//74
f 119//75 143//75 144//75 120//75
f 120//76 144//76 121//76 97//76
f 121//53 145//53 146//53 122//53
f 122//54 146//54 147//54 123//54
f 123//55 147//55 148//55 124//55
f 124//56 148//56 149//56 125//56
f 125//57 149//57 150//57 126//57
f 126//58 150//58 151//58 127//58
f 127//59 151//59 152//59 128//59
f 128//60 152//60 153//60 129//60
f 129//61 153//61 154//61 130//61
f 130//62 154//62 155//62 131//62
f 131//63 155//63 156//63 132//63
f 132//64 156//64 157//64 133//64
f 133//65 157//65 158//65 134//65
f 134//66 158//66 159//66 135//66
f 135//67 159//67 160//67 136//67
f 136//68 160//68 161//68 137//68
f 137//69 161//69 162//69 138//69
f 138//70 162//70 163//70 139//70
f 139//71 163//71 164//71 140//71
f 140//72 164//72 165//72 141//72
f 141//73 165//73 166//73 142//73
f 142//74 166//74 167//74 143//74
f 143//75 167//75 168//75 144//75
f 144//76 168//76 145//76 121//76
f 145//53 169//53 170//53 146//53
f 146//54 170//54 171//54 147//54
f 147//55 171//55 172//55 148//55
f 148//56 172//56 173//56 149//56
f 149//57 173//57 174//57 150//57
f 150//58 174//58 175//58 151//58
f 151//59 175//59 176//59 152//59
f 152//60 176//60 177//60 153//60
f 153//61 177//61 178//61 154//61
f 154//62 178//62 179//62 155//62
f 155//63 179//63 180//63 156//63
f 156//64 180//64 181//64 157//64
f 157//65 181//65 182//65 158//65
f 158//66 182//66 183//66 159//66
f 159//67 183//67 184//67 160//67
f 160//68 184//68 185//68 161//68
f 161//69 185//69 186//69 162//69
f 162//70 186//70 187//70 163//70
f 163//71 187//71 188//71 164//71
f 164//72 188//72 189//72 165//72
f 165//73 189//73 190//73 166//73
f 166//74 190//74 191//74 167//74
f 167//75 191//75 192//75 168//75
f 168//76 192//76 169//76 145//76
f 169//53 193//53 194//53 170//53
f 170//54 194//54 195//54 171//54
f 171//55 195//55 196//55 172//55
f 172//56 196//56 197//56 173//56
f 173//57 197//57 198//57 174//57
f 174//58 198//58 199//58 175//58
f 175//59 199//59 200//59 176//59
f 176//60 200//60 201//60 177//60
f 177//61 201//61 202//61 178//61
f 178//62 202//62 203//62 179//62
f 179//63 203//63 204//63 180//63
f 180//64 204//64 205//64 181//64
f 181//65 205//65 206//65 182//65
f 182//66 206//66 207//66 183//66
f 183//67 207//67 208//67 184//67
f 184//68 208//68 209//68 185//68
f 185//69 209//69 210//69 186//69
f 186//70 210//70 211//70 187//70
f 187//71 211//71 212//71 188//71
f 188//72 212//72 213//72 189//72
f 189//73 213//73 214//73 190//73
f 190//74 214//74 215//74 191//74
f 191//75 215//75 216//75 192//75
f 192//76 216//76 193//76 169//76
f 193//53 217//53 218//53 194//53
f 194//54 218//54 219//54 195//54
f 195//55 219//55 220//55 196//55
f 196//56 220//56 221//56 197//56
f 197//57 221//57 222//57 198//57
f 198//58 222//58 223//58 199//58
f 199//59 223//59 224//59 200//59
f 200//60 224//60 225//60 201//60
f 201//61 225//61 226//61 202//61
f 202//62 226//62 227//62 203//62
f 203//63 227//63 228//63 204//63
f 204//64 228//64 229//64 205//64
f 205//65 229//65 230//65 206//65
f 206//66 230//66 231//66 207//66
f 207//67 231//67 232//67 208//67
f 208//68 232//68 233//68 209//68
f 209//69 233//69 234//69 210//69
f 210//70 234//70 235//70 211//70
f 211//71 235//71 236//71 212//71
f 212//72 236//72 237//72 213//72
f 213//73 237//73 238//73 214//73
f 214//74 238//74 239//74 215//74
f 215//75 239//75 240//75 216//75
f 216//76 240//76 217//76 193//76
f 217//53 241//53 242//53 218//53
f 218//54 242//54 243//54 219//54
f 219//55 243//55 244//55 220//55
f 220//56 244//56 245//56 221//56
f 221//57 245//57 246//57 222//57
f 222//58 246//58 247//58 223//58
f 223//59 247//59 248//59 224//59
f 224//60 248//60 249//60 225//60
f 225//61 249//61 250//61 226//61
f 226//62 250//62 251//62 227//62
f 227//63 251//63 252//63 228//63
f 228//64 252//64 253//64 229//64
f 229//65 253//65 254//65 230//65
f 230//66 254//66 255//66 231//66
f 231//67 255//67 256//67 232//67
f 232//68 256//68 257//68 233//68
f 233//69 257//69 258//69 234//69
f 234//70 258//70 259//70 235//70
f 235//71 259//71 260//71 236//71
f 236//72 260//72 261//72 237//72
f 237//73 261//73 262//73 238//73
f 238//74 262//74 263//74 239//74
f 239//75 263//75 264//75 240//75
f 240//76 264//76 241//76 217//76
f 241//53 265//53 266//53 242//53
f 242//54 266//54 267//54 243//54
f 243//55 267//55 268//55 244//55
f 244//56 268//56 269//56 245//56
f 245//57 269//57 270//57 246//57
f 246//58 270//58 271//58 247//58
f 247//59 271//59 272//59 248//59
f 248//60 272//60 273//60 249//60
f 249//61 273//61 274//61 250//61
f 250//62 274//62 275//62 251//62
f 251//63 275//63 276//63 252//63
f 252//64 276//64 277//64 253//64
f 253//65 277//65 278//65 254//65
f 254//66 278//66 279//66 255//66
f 255//67 279//67 280//67 256//67
f 256//68 280//68 281//68 257//68
f 257//69 281//69 282//69 258//69
f 258//70 282//70 283//70 259//70
f 259//71 283//71 284//71 260//71
f 260//72 284//72 285//72 261//72
f 261//73 285//73 286//73 262//73
f 262//74 286//74 287//74 263//74
f 263//75 287//75 288//75 264//75
f 264//76 288//76 265//76 241//76
f 265//53 289//53 290//53 266//53
f 266//54 290//54 291//54 267//54
f 267//55 291//55 292//55 268//55
f 268//56 292//56 293//56 269//56
f 269//57 293//57 294//57 270//57
f 270//58 294//58 295//58 271//58
f 271//59 295//59 296//59 272//59
f 272//60 296//60 297//60 273//60
f 273//61 297//61 298//61 274//61
f 274//62 298//62 299//62 275//62
f 275//63 299//63 300//63 276//63
f 276//64 300//64 301//64 277//64
f 277//65 301//65 302//65 278//65
f 278//66 302//66 303//66 279//66
f 279//67 303//67 304//67 280//67
f 280//68 304//68 305//68 281//68
f 281//69 305//69 306//69 282//69
f 282//70 306//70 307//70 283//70
f 283//71 307//71 308//71 284//71
f 284//72 308//72 309//72 285//72
f 285//73 309//73 310//73 286//73
f 286//74 310//74 311//74 287//74
f 287//75 311//75 312//75 288//75
f 288//76 312//76 289//76 265//76
f 120//77 97//77 98//77 99//77 100//77 101//77 102//77 103//77 104//77 105//77 106//77 107//77 108//77 109//77 110//77 111//77 112//77 113//77 114//77 115//77 116//77 117//77 118//77 119//77
f 289//78 312//78 311//78 310//78 309//78 308//78 307//78 306//78 305//78 304//78 303//78 302//78 301//78 300//78 299//78 298//78 297//78 296//78 295//78 294//78 293//78 292//78 291//78 290//78
o CueButt
v -1.170000 0.000000 -0.008800
v -1.170000 0.002278 -0.008500
v -1.170000 0.004400 -0.007621
v -1.170000 0.006223 -0.006223
v -1.170000 0.007621 -0.004400
v -1.170000 0.008500 -0.002278
v -1.170000 0.008800 -0.000000
v -1.170000 0.008500 0.002278
v -1.170000 0.007621 0.004400
v -1.170000 0.006223 0.006223
v -1.170000 0.004400 0.007621
v -1.170000 0.002278 0.008500
v -1.170000 0.000000 0.008800
v -1.170000 -0.002278 0.008500
v -1.170000 -0.004400 0.007621
v -1.170000 -0.006223 0.006223
v -1.170000 -0.007621 0.004400
v -1.170000 -0.008500 0.002278
v -1.170000 -0.008800 0.000000
v -1.170000 -0.008500 -0.002278
v -1.170000 -0.007621 -0.004400
v -1.170000 -0.006223 -0.006223
v -1.170000 -0.004400 -0.007621
v -1.170000 -0.002278 -0.008500
v -1.207500 0.000000 -0.009512
v -1.207500 0.002462 -0.009188
v -1.207500 0.004756 -0.008238
v -1.207500 0.006726 -0.006726
v -1.207500 0.008238 -0.004756
v -1.207500 0.009188 -0.002462
v -1.207500 0.009512 -0.000000
v -1.207500 0.009188 0.002462
v -1.207500 0.008238 0.004756
v -1.207500 0.006726 0.006726
v -1.207500 0.004756 0.008238
v -1.207500 0.002462 0.009188
v -1.207500 0.000000 0.009512
v -1.207500 -0.002462 0.009188
v -1.207500 -0.004756 0.008238
v -1.207500 -0.006726 0.006726
v -1.207500 -0.008238 0.004756
v -1.207500 -0.009188 0.002462
v -1.207500 -0.009512 0.000000
v -1.207500 -0.009188 -0.002462
v -1.207500 -0.008238 -0.004756
v -1.207500 -0.006726 -0.006726
v -1.207500 -0.004756 -0.008238
v -1.207500 -0.002462 -0.009188
v -1.245000 0.000000 -0.010225
v -1.245000 0.002646 -0.009877
v -1.245000 0.005112 -0.008855
v -1.245000 0.007230 -0.007230
v -1.245000 0.008855 -0.005112
v -1.245000 0.009877 -0.002646
v -1.245000 0.010225 -0.000000
v -1.245000 0.009877 0.002646
v -1.245000 0.008855 0.005112
v -1.245000 0.007230 0.007230
v -1.245000 0.005112 0.008855
v -1.245000 0.002646 0.009877
v -1.245000 0.000000 0.010225
v -1.245000 -0.002646 0.009877
v -1.245000 -0.005112 0.008855
v -1.245000 -0.007230 0.007230
v -1.245000 -0.008855 0.005112
v -1.245000 -0.009877 0.002646
v -1.245000 -0.010225 0.000000
v -1.245000 -0.009877 -0.002646
v -1.245000 -0.008855 -0.005112
v -1.245000 -0.007230 -0.007230
v -1.245000 -0.005112 -0.008855
v -1.245000 -0.002646 -0.009877
v -1.282500 0.000000 -0.010937
v -1.282500 0.002831 -0.010565
v -1.282500 0.005469 -0.009472
v -1.282500 0.007734 -0.007734
v -1.282500 0.009472 -0.005469
v -1.282500 0.010565 -0.002831
v -1.282500 0.010937 -0.000000
v -1.282500 0.010565 0.002831
v -1.282500 0.009472 0.005469
v -1.282500 0.007734 0.007734
v -1.282500 0.005469 0.009472
v -1.282500 0.002831 0.010565
v -1.282500 0.000000 0.010937
v -1.282500 -0.002831 0.010565
v -1.282500 -0.005469 0.009472
v -1.282500 -0.007734 0.007734
v -1.282500 -0.009472 0.005469
v -1.282500 -0.010565 0.002831
v -1.282500 -0.010937 0.000000
v -1.282500 -0.010565 -0.002831
v -1.282500 -0.009472 -0.005469
v -1.282500 -0.007734 -0.007734
v -1.282500 -0.005469 -0.009472
v -1.282500 -0.002831 -0.010565
v -1.320000 0.000000 -0.011650
v -1.320000 0.003015 -0.011253
v -1.320000 0.005825 -0.010089
v -1.320000 0.008238 -0.008238
v -1.320000 0.010089 -0.005825
v -1.320000 0.011253 -0.003015
v -1.320000 0.011650 -0.000000
v -1.320000 0.011253 0.003015
v -1.320000 0.010089 0.005825
v -1.320000 0.008238 0.008238
v -1.320000 0.005825 0.010089
v -1.320000 0.003015 0.011253
v -1.320000 0.000000 0.011650
v -1.320000 -0.003015 0.011253
v -1.320000 -0.005825 0.010089
v -1.320000 -0.008238 0.008238
v -1.320000 -0.010089 0.005825
v -1.320000 -0.011253 0.003015
v -1.320000 -0.011650 0.000000
v -1.320000 -0.011253 -0.003015
v -1.320000 -0.010089 -0.005825
v -1.320000 -0.008238 -0.008238
v -1.320000 -0.005825 -0.010089
v -1.320000 -0.003015 -0.011253
v -1.357500 0.000000 -0.012362
v -1.357500 0.003200 -0.011941
v -1.357500 0.006181 -0.010706
v -1.357500 0.008742 -0.008742
v -1.357500 0.010706 -0.006181
v -1.357500 0.011941 -0.003200
v -1.357500 0.012362 -0.000000
v -1.357500 0.011941 0.003200
v -1.357500 0.010706 0.006181
v -1.357500 0.008742 0.008742
v -1.357500 0.006181 0.010706
v -1.357500 0.003200 0.011941
v -1.357500 0.000000 0.012362
v -1.357500 -0.003200 0.011941
v -1.357500 -0.006181 0.010706
v -1.357500 -0.008742 0.008742
v -1.357500 -0.010706 0.006181
v -1.357500 -0.011941 0.003200
v -1.357500 -0.012362 0.000000
v -1.357500 -0.011941 -0.003200
v -1.357500 -0.010706 -0.006181
v -1.357500 -0.008742 -0.008742
v -1.357500 -0.006181 -0.010706
v -1.357500 -0.003200 -0.011941
v -1.395000 0.000000 -0.013075
v -1.395000 0.003384 -0.012629
v -1.395000 0.006537 -0.011323
v -1.395000 0.009245 -0.009245
v -1.395000 0.011323 -0.006537
v -1.395000 0.012629 -0.003384
v -1.395000 0.013075 -0.000000
v -1.395000 0.012629 0.003384
v -1.395000 0.011323 0.006537
v -1.395000 0.009245 0.009245
v -1.395000 0.006537 0.011323
v -1.395000 0.003384 0.012629
v -1.395000 0.000000 0.013075
v -1.395000 -0.003384 0.012629
v -1.395000 -0.006537 0.011323
v -1.395000 -0.009245 0.009245
v -1.395000 -0.011323 0.006537
v -1.395000 -0.012629 0.003384
v -1.395000 -0.013075 0.000000
v -1.395000 -0.012629 -0.003384
v -1.395000 -0.011323 -0.006537
v -1.395000 -0.009245 -0.009245
v -1.395000 -0.006537 -0.011323
v -1.395000 -0.003384 -0.012629
v -1.432500 0.000000 -0.013787
v -1.432500 0.003568 -0.013318
v -1.432500 0.006894 -0.011940
v -1.432500 0.009749 -0.009749
v -1.432500 0.011940 -0.006894
v -1.432500 0.013318 -0.003568
v -1.432500 0.013787 -0.000000
v -1.432500 0.013318 0.003568
v -1.432500 0.011940 0.006894
v -1.432500 0.009749 0.009749
v -1.432500 0.006894 0.011940
v -1.432500 0.003568 0.013318
v -1.432500 0.000000 0.013787
v -1.432500 -0.003568 0.013318
v -1.432500 -0.006894 0.011940
v -1.432500 -0.009749 0.009749
v -1.432500 -0.011940 0.006894
v -1.432500 -0.013318 0.003568
v -1.432500 -0.013787 0.000000
v -1.432500 -0.013318 -0.003568
v -1.432500 -0.011940 -0.006894
v -1.432500 -0.009749 -0.009749
v -1.432500 -0.006894 -0.011940
v -1.432500 -0.003568 -0.013318
v -1.470000 0.000000 -0.014500
v -1.470000 0.003753 -0.014006
v -1.470000 0.007250 -0.012557
v -1.470000 0.010253 -0.010253
v -1.470000 0.012557 -0.007250
v -1.470000 0.014006 -0.003753
v -1.470000 0.014500 -0.000000
v -1.470000 0.014006 0.003753
v -1.470000 0.012557 0.007250
v -1.470000 0.010253 0.010253
v -1.470000 0.007250 0.012557
v -1.470000 0.003753 0.014006
v -1.470000 0.000000 0.014500
v -1.470000 -0.003753 0.014006
v -1.470000 -0.007250 0.012557
v -1.470000 -0.010253 0.010253
v -1.470000 -0.012557 0.007250
v -1.470000 -0.014006 0.003753
v -1.470000 -0.014500 0.000000
v -1.470000 -0.014006 -0.003753
v -1.470000 -0.012557 -0.007250
v -1.470000 -0.010253 -0.010253
v -1.470000 -0.007250 -0.012557
v -1.470000 -0.003753 -0.014006
vn 0.0188 0.1305 -0.9913
vn 0.0188 0.3826 -0.9237
vn 0.0188 0.6087 -0.7932
vn 0.0188 0.7932 -0.6087
vn 0.0188 0.9237 -0.3826
vn 0.0188 0.9913 -0.1305
vn 0.0188 0.9913 0.1305
vn 0.0188 0.9237 0.3826
vn 0.0188 0.7932 0.6087
vn 0.0188 0.6087 0.7932
vn 0.0188 0.3826 0.9237
vn 0.0188 0.1305 0.9913
vn 0.0188 -0.1305 0.9913
vn 0.0188 -0.3826 0.9237
vn 0.0188 -0.6087 0.7932
vn 0.0188 -0.7932 0.6087
vn 0.0188 -0.9237 0.3826
vn 0.0188 -0.9913 0.1305
vn 0.0188 -0.9913 -0.1305
vn 0.0188 -0.9237 -0.3826
vn 0.0188 -0.7932 -0.6087
vn 0.0188 -0.6087 -0.7932
vn 0.0188 -0.3826 -0.9237
vn 0.0188 -0.1305 -0.9913
vn 1.0000 -0.0000 -0.0000
vn -1.0000 -0.0000 -0.0000
s 0
usemtl CueButt
f 313//79 337//79 338//79 314//79
f 314//80 338//80 339//80 315//80
f 315//81 339//81 340//81 316//81
f 316//82 340//82 341//82 317//82
f 317//83 341//83 342//83 318//83
f 318//84 342//84 343//84 319//84
f 319//85 343//85 344//85 320//85
f 320//86 344//86 345//86 321//86
f 321//87 345//87 346//87 322//87
f 322//88 346//88 347//88 323//88
f 323//89 347//89 348//89 324//89
f 324//90 348//90 349//90 325//90
f 325//91 349//91 350//91 326//91
f 326//92 350//92 351//92 327//92
f 327//93 351//93 352//93 328//93
f 328//94 352//94 353//94 329//94
f 329//95 353//95 354//95 330//95
f 330//96 354//96 355//96 331//96
f 331//97 355//97 356//97 332//97
f 332//98 356//98 357//98 333//98
f 333//99 357//99 358//99 334//99
f 334//100 358//100 359//100 335//100
f 335//101 359//101 360//101 336//101
f 336//102 360//102 337//102 313//102
f 337//79 361//79 362//79 338//79
f 338//80 362//80 363//80 339//80
f 339//81 363//81 364//81 340//81
f 340//82 364//82 365//82 341//82
f 341//83 365//83 366//83 342//83
f 342//84 366//84 367//84 343//84
f 343//85 367//85 368//85 344//85
f 344//86 368//86 369//86 345//86
f 345//87 369//87 370//87 346//87
f 346//88 370//88 371//88 347//88
f 347//89 371//89 372//89 348//89
f 348//90 372//90 373//90 349//90
f 349//91 373//91 374//91 350//91
f 350//92 374//92 375//92 351//92
f 351//93 375//93 376//93 352//93
f 352//94 376//94 377//94 353//94
f 353//95 377//95 378//95 354//95
f 354//96 378//96 379//96 355//96
f 355//97 379//97 380//97 356//97
f 356//98 380//98 381//98 357//98
f 357//99 381//99 382//99 358//99
f 358//100 382//100 383//100 359//100
f 359//101 383//101 384//101 360//101
f 360//102 384//102 361//102 337//102
f 361//79 385//79 386//79 362//79
f 362//80 386//80 387//80 363//80
f 363//81 387//81 388//81 364//81
f 364//82 388//82 389//82 365//82
f 365//83 389//83 390//83 366//83
f 366//84 390//84 391//84 367//84
f 367//85 391//85 392//85 368//85
f 368//86 392//86 393//86 369//86
f 369//87 393//87 394//87 370//87
f 370//88 394//88 395//88 371//88
f 371//89 395//89 396//89 372//89
f 372//90 396//90 397//90 373//90
f 373//91 397//91 398//91 374//91
f 374//92 398//92 399//92 375//92
f 375//93 399//93 400//93 376//93
f 376//94 400//94 401//94 377//94
f 377//95 401//95 402//95 378//95
f 378//96 402//96 403//96 379//96
f 379//97 403//97 404//97 380//97
f 380//98 404//98 405//98 381//98
f 381//99 405//99 406//99 382//99
f 382//100 406//100 407//100 383//100
f 383//101 407//101 408//101 384//101
f 384//102 408//102 385//102 361//102
f 385//79 409//79 410//79 386//79
f 386//80 410//80 411//80 387//80
f 387//81 411//81 412//81 388//81
f 388//82 412//82 413//82 389//82
f 389//83 413//83 414//83 390//83
f 390//84 414//84 415//84 391//84
f 391//85 415//85 416//85 392//85
f 392//86 416//86 417//86 393//86
f 393//87 417//87 418//87 394//87
f 394//88 418//88 419//88 395//88
f 395//89 419//89 420//89 396//89
f 396//90 420//90 421//90 397//90
f 397//91 421//91 422//91 398//91
f 398//92 422//92 423//92 399//92
f 399//93 423//93 424//93 400//93
f 400//94 424//94 425//94 401//94
f 401//95 425//95 426//95 402//95
f 402//96 426//96 427//96 403//96
f 403//97 427//97 428//97 404//97
f 404//98 428//98 429//98 405//98
f 405//99 429//99 430//99 406//99
f 406//100 430//100 431//100 407//100
f 407//101 431//101 432//101 408//101
f 408//102 432//102 409//102 385//102
f 409//79 433//79 434//79 410//79
f 410//80 434//80 435//80 411//80
f 411//81 435//81 436//81 412//81
f 412//82 436//82 437//82 413//82
f 413//83 437//83 438//83 414//83
f 414//84 438//84 439//84 415//84
f 415//85 439//85 440//85 416//85
f 416//86 440//86 441//86 417//86
f 417//87 441//87 442//87 418//87
f 418//88 442//88 443//88 419//88
f 419//89 443//89 444//89 420//89
f 420//90 444//90 445//90 421//90
f 421//91 445//91 446//91 422//91
f 422//92 446//92 447//92 423//92
f 423//93 447//93 448//93 424//93
f 424//94 448//94 449//94 425//94
f 425//95 449//95 450//95 426//95
f 426//96 450//96 451//96 427//96
f 427//97 451//97 452//97 428//97
f 428//98 452//98 453//98 429//98
f 429//99 453//99 454//99 430//99
f 430//100 454//100 455//100 431//100
f 431//101 455//101 456//101 432//101
f 432//102 456//102 433//102 409//102
f 433//79 457//79 458//79 434//79
f 434//80 458//80 459//80 435//80
f 435//81 459//81 460//81 436//81
f 436//82 460//82 461//82 437//82
f 437//83 461//83 462//83 438//83
f 438//84 462//84 463//84 439//84
f 439//85 463//85 464//85 440//85
f 440//86 464//86 465//86 441//86
f 441//87 465//87 466//87 442//87
f 442//88 466//88 467//88 443//88
f 443//89 467//89 468//89 444//89
f 444//90 468//90 469//90 445//90
f 445//91 469//91 470//91 446//91
f 446//92 470//92 471//92 447//92
f 447//93 471//93 472//93 448//93
f 448//94 472//94 473//94 449//94
f 449//95 473//95 474//95 450//95
f 450//96 474//96 475//96 451//96
f 451//97 475//97 476//97 452//97
f 452//98 476//98 477//98 453//98
f 453//99 477//99 478//99 454//99
f 454//100 478//100 479//100 455//100
f 455//101 479//101 480//101 456//101
f 456//102 480//102 457//102 433//102
f 457//79 481//79 482//79 458//79
f 458//80 482//80 483//80 459//80
f 459//81 483//81 484//81 460//81
f 460//82 484//82 485//82 461//82
f 461//83 485//83 486//83 462//83
f 462//84 486//84 487//84 463//84
f 463//85 487//85 488//85 464//85
f 464//86 488//86 489//86 465//86
f 465//87 489//87 490//87 466//87
f 466//88 490//88 491//88 467//88
f 467//89 491//89 492//89 468//89
f 468//90 492//90 493//90 469//90
f 469//91 493//91 494//91 470//91
f 470//92 494//92 495//92 471//92
f 471//93 495//93 496//93 472//93
f 472//94 496//94 497//94 473//94
f 473//95 497//95 498//95 474//95
f 474//96 498//96 499//96 475//96
f 475//97 499//97 500//97 476//97
f 476//98 500//98 501//98 477//98
f 477//99 501//99 502//99 478//99
f 478//100 502//100 503//100 479//100
f 479//101 503//101 504//101 480//101
f 480//102 504//102 481//102 457//102
f 481//79 505//79 506//79 482//79
f 482//80 506//80 507//80 483//80
f 483//81 507//81 508//81 484//81
f 484//82 508//82 509//82 485//82
f 485//83 509//83 510//83 486//83
f 486//84 510//84 511//84 487//84
f 487//85 511//85 512//85 488//85
f 488//86 512//86 513//86 489//86
f 489//87 513//87 514//87 490//87
f 490//88 514//88 515//88 491//88
f 491//89 515//89 516//89 492//89
f 492//90 516//90 517//90 493//90
f 493//91 517//91 518//91 494//91
f 494//92 518//92 519//92 495//92
f 495//93 519//93 520//93 496//93
f 496//94 520//94 521//94 497//94
f 497//95 521//95 522//95 498//95
f 498//96 522//96 523//96 499//96
f 499//97 523//97 524//97 500//97
f 500//98 524//98 525//98 501//98
f 501//99 525//99 526//99 502//99
f 502//100 526//100 527//100 503//100
f 503//101 527//101 528//101 504//101
f 504//102 528//102 505//102 481//102
f 336//103 313//103 314//103 315//103 316//103 317//103 318//103 319//103 320//103 321//103 322//103 323//103 324//103 325//103 326//103 327//103 328//103 329//103 330//103 331//103 332//103 333//103 334//103 335//103
f 505//104 528//104 527//104 526//104 525//104 524//104 523//104 522//104 521//104 520//104 519//104 518//104 517//104 516//104 515//104 514//104 513//104 512//104 511//104 510//104 509//104 508//104 507//104 506//104
